<svg xmlns="http://www.w3.org/2000/svg" viewBox="0 0 800 500">
  <defs>
    <linearGradient id="skin" x1="0" x2="1">
      <stop offset="0%" stop-color="#ffd9b3"/>
      <stop offset="100%" stop-color="#ffad73"/>
    </linearGradient>
  </defs>
  <g id="arm-group" transform="translate(70,40)">
    <path id="upper" d="M120 200 C150 160, 220 140, 300 150 C360 158, 420 190, 460 230 C480 250, 490 280, 480 300 C440 330, 360 320, 300 300 C240 280, 180 260, 120 240 Z" fill="url(#skin)" stroke="#b26439" stroke-width="4"/>
    <path id="bicep" d="M40 220 C80 180, 160 150, 240 160 C260 164, 280 176, 300 200 C320 230, 300 260, 260 270 C210 285, 140 270, 80 250 Z" fill="url(#skin)" stroke="#b26439" stroke-width="4"/>
    <g id="forearm" transform="translate(300,200)">
      <path id="lower" d="M0 0 C100 10, 220 30, 280 80 C320 110, 320 150, 300 180 C260 220, 180 220, 100 200 C40 185, 10 160, 0 140 Z" fill="url(#skin)" stroke="#b26439" stroke-width="4"/>
      <g id="hand" transform="translate(280,80)">
        <rect x="-10" y="-10" width="120" height="20" rx="8" fill="#333" stroke="#111" stroke-width="2" id="bar"/>
        <g id="left-plate" transform="translate(0,0)"><ellipse cx="-6" cy="0" rx="28" ry="36" fill="#666" stroke="#222" stroke-width="4"/></g>
        <g id="right-plate" transform="translate(120,0)"><ellipse cx="6" cy="0" rx="28" ry="36" fill="#666" stroke="#222" stroke-width="4"/></g>
      </g>
    </g>
  </g>
</svg>
